<svg width="729" height="1413" viewBox="0 0 729 1413" fill="none" xmlns="http://www.w3.org/2000/svg">
<g id="back flower">
<g id="stem" filter="url(#filter0_i_1_49)">
<path d="M187.41 562.931C193.474 499.353 261.45 428.574 294.68 401.131L377.88 383.198C335.046 411.88 243.564 492.231 220.307 584.178C191.235 699.111 142.643 1102.42 204.04 1188.64C294.541 1315.73 368.13 1922.8 332.03 2097.85C303.149 2237.9 154.748 2387.93 84.1576 2445.44L26.476 2439.94C83.4714 2407.43 216.172 2292.72 291.012 2093.94C384.561 1845.46 177.772 1341.98 148.867 1156.84C119.962 971.703 179.829 642.403 187.41 562.931Z" fill="#779357"/>
</g>
<path id="petal1" d="M307.253 422.941C335.581 422.941 349.745 377.874 371.634 379.161V422.941C371.634 446.118 434.728 505.349 434.728 528.526C434.728 551.704 399.962 545.266 371.634 559.43C343.307 573.594 371.634 589.045 345.882 589.045C320.129 589.045 318.842 585.182 307.253 559.43C295.664 533.677 222.269 511.787 220.982 480.884C219.694 449.981 278.925 422.941 307.253 422.941Z" fill="url(#paint0_linear_1_49)"/>
<path id="petal2" d="M344.992 491.33C311.514 474.591 355.294 340.677 388.772 340.677C415.812 317.326 449.291 326.513 481.481 304.623C513.672 282.734 532.987 244.105 561.315 222.215C589.642 200.325 665.613 191.312 683.639 190.024C701.666 188.737 728.707 238.954 728.707 277.583C728.707 316.212 717.118 304.623 706.817 326.513C696.516 348.403 717.118 340.677 717.118 372.868C717.118 405.059 659.174 450.126 625.696 450.126C592.218 450.126 572.903 491.33 544.575 511.932C516.247 532.534 489.207 510.644 449.291 500.343C409.374 490.042 378.471 508.069 344.992 491.33Z" fill="url(#paint1_linear_1_49)"/>
<path id="petal3" d="M470.782 271C433.698 306.024 444.656 355.446 429.578 372.723C414.5 390 360 439 339.444 438.392C318.888 437.785 348.972 393.325 351.032 372.723C353.608 346.97 348.457 287.739 325.28 225.933C302.102 164.127 325.28 110.046 325.28 84.2937C325.28 58.5411 345.882 62.404 370.347 48.24C394.812 34.0761 396.1 22.4874 411.551 12.1864C427.003 1.88531 429.578 12.1864 437.304 12.1864C445.03 12.1864 457.906 5.74821 470.782 0.597686C483.658 -4.55284 564.779 25.0627 589.244 32.7885C613.709 40.5143 591.819 58.5411 600.833 84.2937C609.846 110.046 622.723 143.525 622.723 195.03C622.723 246.535 517.137 227.221 470.782 271Z" fill="url(#paint2_linear_1_49)"/>
<path id="petal4" d="M237.556 301.776C289.061 313.107 346.575 367.445 368.894 393.197L347.005 147.26C340.137 124.082 325.372 71.2896 321.252 45.537C316.102 13.3462 272.322 21.072 237.556 28.7978C202.79 36.5236 209.228 57.1257 178.325 57.1257C147.422 57.1257 148.709 82.8783 140.984 103.48C133.258 124.082 99.7795 107.343 77.8897 109.919C56 112.494 77.8897 184.601 77.8897 215.504C77.8897 246.407 56 243.832 56 265.722C56 287.612 173.174 287.612 237.556 301.776Z" fill="url(#paint3_linear_1_49)"/>
<path id="petal5" d="M79.3421 370.148C52.3018 343.108 83.205 325.081 97.3689 337.957C115.396 322.506 107.67 303.191 126.984 278.726C146.299 254.261 197.804 272.288 236.433 278.726C267.336 283.877 342.877 352.979 376.785 386.887C410.692 420.795 306.223 418.305 281.5 451.269C250.597 492.473 314.5 474.203 262.186 496.336C195.229 524.664 228.707 443.543 187.503 443.543C146.299 443.543 187.503 420.365 179.777 386.887C172.051 353.409 106.382 397.188 79.3421 370.148Z" fill="url(#paint4_linear_1_49)"/>
</g>
<defs>
<filter id="filter0_i_1_49" x="26.4761" y="383.198" width="351.404" height="2066.24" filterUnits="userSpaceOnUse" color-interpolation-filters="sRGB">
<feFlood flood-opacity="0" result="BackgroundImageFix"/>
<feBlend mode="normal" in="SourceGraphic" in2="BackgroundImageFix" result="shape"/>
<feColorMatrix in="SourceAlpha" type="matrix" values="0 0 0 0 0 0 0 0 0 0 0 0 0 0 0 0 0 0 127 0" result="hardAlpha"/>
<feOffset dy="4"/>
<feGaussianBlur stdDeviation="5"/>
<feComposite in2="hardAlpha" operator="arithmetic" k2="-1" k3="1"/>
<feColorMatrix type="matrix" values="0 0 0 0 0.84837 0 0 0 0 0.84837 0 0 0 0 0.84837 0 0 0 0.25 0"/>
<feBlend mode="normal" in2="shape" result="effect1_innerShadow_1_49"/>
</filter>
<linearGradient id="paint0_linear_1_49" x1="327.845" y1="379.134" x2="327.845" y2="589.045" gradientUnits="userSpaceOnUse">
<stop stop-color="#FFB700"/>
<stop offset="1" stop-color="#FF7301"/>
</linearGradient>
<linearGradient id="paint1_linear_1_49" x1="530.853" y1="190" x2="530.853" y2="520.461" gradientUnits="userSpaceOnUse">
<stop stop-color="#FFB700"/>
<stop offset="1" stop-color="#FF7301"/>
</linearGradient>
<linearGradient id="paint2_linear_1_49" x1="468.851" y1="0" x2="469" y2="550" gradientUnits="userSpaceOnUse">
<stop stop-color="#FFB700"/>
<stop offset="1" stop-color="#FF7301"/>
</linearGradient>
<linearGradient id="paint3_linear_1_49" x1="212.447" y1="22" x2="212.447" y2="393.197" gradientUnits="userSpaceOnUse">
<stop stop-color="#FFB700"/>
<stop offset="1" stop-color="#FF7301"/>
</linearGradient>
<linearGradient id="paint4_linear_1_49" x1="222.699" y1="266.276" x2="222.699" y2="502.339" gradientUnits="userSpaceOnUse">
<stop stop-color="#FFB700"/>
<stop offset="1" stop-color="#FF7301"/>
</linearGradient>
</defs>
</svg>
