<svg width="1304" height="1413" viewBox="0 0 1304 1413" fill="none" xmlns="http://www.w3.org/2000/svg">
<g filter="url(#filter0_i_8_17)">
<path d="M399.422 834.196C399.422 770.329 460.37 693.415 490.844 662.941L571.965 637.188C532.048 669.808 448.61 758.483 434.188 852.222C416.162 969.397 406.086 1375.5 475.393 1455.5C577.552 1573.42 708.454 2170.76 689.139 2348.45C673.688 2490.6 540.203 2654.05 475.393 2718H417.449C471.101 2680.23 592.31 2553.44 647.935 2348.45C717.467 2092.21 463.804 1610.64 417.449 1429.08C371.095 1247.53 399.422 914.029 399.422 834.196Z" fill="#779357"/>
</g>
<path d="M479.256 662.941C507.583 662.941 521.747 617.874 543.637 619.161V662.941C543.637 686.118 606.731 745.349 606.731 768.526C606.731 791.704 571.965 785.266 543.637 799.43C515.309 813.594 543.637 829.045 517.884 829.045C492.132 829.045 490.844 825.182 479.256 799.43C467.667 773.677 394.272 751.787 392.984 720.884C391.697 689.981 450.928 662.941 479.256 662.941Z" fill="url(#paint0_linear_8_17)"/>
<path d="M523.035 749.212C489.557 732.473 533.336 598.559 566.814 598.559C593.855 575.208 627.333 584.395 659.524 562.506C691.715 540.616 711.029 501.987 739.357 480.097C767.685 458.207 843.655 449.194 861.682 447.906C879.709 446.619 906.749 496.836 906.749 535.465C906.749 574.094 895.16 562.506 884.859 584.395C874.558 606.285 895.16 598.559 895.16 630.75C895.16 662.941 837.217 708.008 803.739 708.008C770.26 708.008 750.946 749.212 722.618 769.814C694.29 790.416 667.25 768.526 627.333 758.225C587.417 747.924 556.513 765.951 523.035 749.212Z" fill="url(#paint1_linear_8_17)"/>
<path d="M642.785 511C605.701 546.024 611.158 589.946 601.581 612.723C592.004 635.5 523.035 682.5 511.446 678.392C499.858 674.285 520.975 633.325 523.035 612.723C525.61 586.97 520.46 527.739 497.282 465.933C474.105 404.127 497.282 350.046 497.282 324.294C497.282 298.541 517.885 302.404 542.35 288.24C566.815 274.076 568.102 262.487 583.554 252.186C599.005 241.885 601.581 252.186 609.306 252.186C617.032 252.186 629.909 245.748 642.785 240.598C655.661 235.447 736.782 265.063 761.247 272.788C785.712 280.514 763.822 298.541 772.836 324.294C781.849 350.046 794.725 383.525 794.725 435.03C794.725 486.535 689.14 467.221 642.785 511Z" fill="url(#paint2_linear_8_17)"/>
<path d="M417.56 541.776C469.065 553.107 526.579 607.445 548.898 633.197L527.008 387.26C520.141 364.082 505.376 311.29 501.256 285.537C496.105 253.346 452.326 261.072 417.56 268.798C382.793 276.524 389.232 297.126 358.328 297.126C327.425 297.126 328.713 322.878 320.987 343.48C313.261 364.082 279.783 347.343 257.893 349.919C236.004 352.494 257.893 424.601 257.893 455.504C257.893 486.407 236.004 483.832 236.004 505.722C236.004 527.612 353.178 527.612 417.56 541.776Z" fill="url(#paint3_linear_8_17)"/>
<path d="M251.345 610.148C224.305 583.108 255.208 565.081 269.372 577.957C287.399 562.506 279.673 543.191 298.987 518.726C318.302 494.261 369.807 512.288 408.436 518.726C439.339 523.877 514.88 592.979 548.788 626.887C555.004 644 478.225 658.305 453.503 691.269C422.6 732.473 501.145 708.008 434.188 736.336C367.232 764.664 400.71 683.543 359.506 683.543C318.302 683.543 359.506 660.365 351.78 626.887C344.054 593.409 278.385 637.188 251.345 610.148Z" fill="url(#paint4_linear_8_17)"/>
<g filter="url(#filter1_i_8_17)">
<path d="M761.413 562.931C767.478 499.353 835.454 428.574 868.684 401.131L951.883 383.198C909.05 411.88 817.568 492.231 794.311 584.178C765.239 699.111 716.647 1102.42 778.044 1188.64C868.544 1315.73 942.134 1922.8 906.033 2097.85C877.153 2237.9 728.752 2387.93 658.161 2445.44L600.48 2439.94C657.475 2407.43 790.176 2292.72 865.015 2093.94C958.565 1845.46 751.776 1341.98 722.871 1156.84C693.965 971.703 753.833 642.403 761.413 562.931Z" fill="#779357"/>
</g>
<path d="M881.257 422.941C909.584 422.941 923.748 377.874 945.638 379.161V422.941C945.638 446.118 1008.73 505.349 1008.73 528.526C1008.73 551.704 973.966 545.266 945.638 559.43C917.31 573.594 945.638 589.045 919.885 589.045C894.133 589.045 892.845 585.182 881.257 559.43C869.668 533.677 796.273 511.787 794.985 480.884C793.698 449.981 852.929 422.941 881.257 422.941Z" fill="url(#paint5_linear_8_17)"/>
<path d="M918.996 491.33C885.518 474.591 929.297 340.677 962.776 340.677C989.816 317.326 1023.29 326.513 1055.49 304.623C1087.68 282.734 1106.99 244.105 1135.32 222.215C1163.65 200.325 1239.62 191.312 1257.64 190.024C1275.67 188.737 1302.71 238.954 1302.71 277.583C1302.71 316.212 1291.12 304.623 1280.82 326.513C1270.52 348.403 1291.12 340.677 1291.12 372.868C1291.12 405.059 1233.18 450.126 1199.7 450.126C1166.22 450.126 1146.91 491.33 1118.58 511.932C1090.25 532.534 1063.21 510.644 1023.29 500.343C983.378 490.042 952.475 508.069 918.996 491.33Z" fill="url(#paint6_linear_8_17)"/>
<path d="M1044.79 271C1007.7 306.024 1018.66 355.446 1003.58 372.723C988.504 390 934.004 439 913.447 438.392C892.891 437.785 922.976 393.325 925.036 372.723C927.611 346.97 922.461 287.739 899.283 225.933C876.106 164.127 899.283 110.046 899.283 84.2937C899.283 58.5411 919.886 62.404 944.351 48.24C968.816 34.0761 970.103 22.4874 985.555 12.1864C1001.01 1.88531 1003.58 12.1864 1011.31 12.1864C1019.03 12.1864 1031.91 5.74821 1044.79 0.597686C1057.66 -4.55284 1138.78 25.0627 1163.25 32.7885C1187.71 40.5143 1165.82 58.5411 1174.84 84.2937C1183.85 110.046 1196.73 143.525 1196.73 195.03C1196.73 246.535 1091.14 227.221 1044.79 271Z" fill="url(#paint7_linear_8_17)"/>
<path d="M811.56 301.776C863.065 313.107 920.579 367.445 942.898 393.197L921.008 147.26C914.141 124.082 899.376 71.2896 895.256 45.537C890.105 13.3462 846.326 21.072 811.56 28.7978C776.794 36.5236 783.232 57.1257 752.329 57.1257C721.425 57.1257 722.713 82.8783 714.987 103.48C707.262 124.082 673.783 107.343 651.893 109.919C630.004 112.494 651.893 184.601 651.893 215.504C651.893 246.407 630.004 243.832 630.004 265.722C630.004 287.612 747.178 287.612 811.56 301.776Z" fill="url(#paint8_linear_8_17)"/>
<path d="M653.346 370.148C626.305 343.108 657.209 325.081 671.373 337.957C689.399 322.506 681.674 303.191 700.988 278.726C720.303 254.261 771.808 272.288 810.437 278.726C841.34 283.877 916.881 352.979 950.789 386.887C984.696 420.795 880.226 418.305 855.504 451.269C824.601 492.473 888.504 474.203 836.189 496.336C769.233 524.664 802.711 443.543 761.507 443.543C720.303 443.543 761.507 420.365 753.781 386.887C746.055 353.409 680.386 397.188 653.346 370.148Z" fill="url(#paint9_linear_8_17)"/>
<g filter="url(#filter2_i_8_17)">
<path d="M959.824 1242.12C977.829 1180.84 941.036 1089.86 920.389 1052.04L849.819 1004.46C878.92 1047.01 933.976 1155.61 921.386 1249.61C905.648 1367.12 800.828 1759.59 711.781 1816.8C580.522 1901.14 286.532 2437.35 254.968 2613.28C229.718 2754.02 311.711 2948.47 355.864 3028.1L411.457 3044.43C370.63 2993.07 290.081 2837.25 294.501 2624.89C300.027 2359.45 679.164 1968.92 774.822 1807.79C870.479 1646.67 937.318 1318.71 959.824 1242.12Z" fill="#779357"/>
</g>
<path d="M931.508 1055.3C904.329 1047.32 903.445 1000.08 882.08 995.148L869.738 1037.15C863.204 1059.39 785.971 1098.43 779.437 1120.67C772.903 1142.91 808.074 1146.53 831.259 1168.11C854.445 1189.68 822.91 1196.52 847.619 1203.78C872.327 1211.04 874.651 1207.7 893.03 1186.26C911.408 1164.81 987.997 1164.5 997.945 1135.22C1007.89 1105.93 958.687 1063.29 931.508 1055.3Z" fill="url(#paint10_linear_8_17)"/>
<path d="M889.938 1101.2C920.748 1091.02 913.374 953.996 886.101 948.025C869.006 920.669 839.791 923.563 818.191 896.7C796.591 869.836 789.018 829.117 770.565 802.943C752.112 776.768 692.126 754.52 677.713 750.062C663.299 745.604 630.661 789.237 622.5 826.51C614.339 863.784 626.228 854.669 629.995 877.628C633.762 900.587 618.611 889.458 611.81 920.519C605.009 951.58 642.692 1005.4 669.965 1011.37C697.239 1017.34 704.268 1060.55 722.993 1085.48C741.718 1110.41 768.372 1094.11 803.066 1091.29C837.761 1088.47 859.128 1111.38 889.938 1101.2Z" fill="url(#paint11_linear_8_17)"/>
<path d="M833.972 874.842C859.678 918.9 841.651 935.611 844.827 984.055C848.004 1032.5 920.844 1070.97 939.055 1062C957.266 1053.03 887.871 1028.34 920.187 1006.2C952.504 984.055 946.616 925.388 986.277 872.622C1025.94 819.857 1018.95 761.436 1026.21 736.728C1033.47 712.02 1012.61 709.918 993.132 689.432C973.653 668.945 975.684 657.463 963.763 643.224C951.843 628.985 946.468 638.142 939.055 635.964C931.643 633.786 921.104 623.979 910.202 615.408C899.3 606.836 813.12 612.381 787.47 612.897C761.819 613.412 777.739 636.879 761.831 659.046C745.923 681.213 724.131 709.703 709.611 759.119C695.091 808.536 801.839 819.771 833.972 874.842Z" fill="url(#paint12_linear_8_17)"/>
<path d="M1045.57 964.005C992.958 960.356 922.458 996.276 893.784 1014.69L984.119 784.901C997.242 764.6 1026.29 718.111 1037.5 694.564C1051.52 665.131 1091.35 684.885 1122.52 702.099C1153.7 719.312 1141.72 737.264 1171.37 745.976C1201.02 754.688 1192.52 779.033 1194.13 800.977C1195.73 822.922 1232.57 816.3 1252.85 824.942C1273.12 833.583 1231.79 896.595 1223.08 926.245C1214.37 955.894 1236.1 959.595 1229.92 980.596C1223.75 1001.6 1111.33 968.565 1045.57 964.005Z" fill="url(#paint13_linear_8_17)"/>
<path d="M1183.69 1083.52C1217.26 1065.2 1192.69 1039.2 1175.47 1047.56C1162.53 1027.65 1175.39 1011.3 1163.75 982.38C1152.12 953.462 1097.62 956.238 1058.75 951.525C1027.64 947.754 895.55 999.841 893.594 1015.73C891.638 1031.62 952.437 1065.77 966.864 1104.36C984.898 1152.61 916.435 1106.99 972.69 1153.05C1028.94 1199.1 1019.69 1111.83 1059.23 1123.45C1098.76 1135.07 1065.76 1101.21 1082.61 1071.27C1099.46 1041.33 1150.12 1101.85 1183.69 1083.52Z" fill="url(#paint14_linear_8_17)"/>
<defs>
<filter id="filter0_i_8_17" x="390.853" y="637.188" width="300.199" height="2084.81" filterUnits="userSpaceOnUse" color-interpolation-filters="sRGB">
<feFlood flood-opacity="0" result="BackgroundImageFix"/>
<feBlend mode="normal" in="SourceGraphic" in2="BackgroundImageFix" result="shape"/>
<feColorMatrix in="SourceAlpha" type="matrix" values="0 0 0 0 0 0 0 0 0 0 0 0 0 0 0 0 0 0 127 0" result="hardAlpha"/>
<feOffset dy="4"/>
<feGaussianBlur stdDeviation="5"/>
<feComposite in2="hardAlpha" operator="arithmetic" k2="-1" k3="1"/>
<feColorMatrix type="matrix" values="0 0 0 0 0.934495 0 0 0 0 0.934495 0 0 0 0 0.934495 0 0 0 0.25 0"/>
<feBlend mode="normal" in2="shape" result="effect1_innerShadow_8_17"/>
</filter>
<filter id="filter1_i_8_17" x="600.48" y="383.198" width="351.404" height="2066.24" filterUnits="userSpaceOnUse" color-interpolation-filters="sRGB">
<feFlood flood-opacity="0" result="BackgroundImageFix"/>
<feBlend mode="normal" in="SourceGraphic" in2="BackgroundImageFix" result="shape"/>
<feColorMatrix in="SourceAlpha" type="matrix" values="0 0 0 0 0 0 0 0 0 0 0 0 0 0 0 0 0 0 127 0" result="hardAlpha"/>
<feOffset dy="4"/>
<feGaussianBlur stdDeviation="5"/>
<feComposite in2="hardAlpha" operator="arithmetic" k2="-1" k3="1"/>
<feColorMatrix type="matrix" values="0 0 0 0 0.84837 0 0 0 0 0.84837 0 0 0 0 0.84837 0 0 0 0.25 0"/>
<feBlend mode="normal" in2="shape" result="effect1_innerShadow_8_17"/>
</filter>
<filter id="filter2_i_8_17" x="250.239" y="1004.46" width="714.401" height="2043.97" filterUnits="userSpaceOnUse" color-interpolation-filters="sRGB">
<feFlood flood-opacity="0" result="BackgroundImageFix"/>
<feBlend mode="normal" in="SourceGraphic" in2="BackgroundImageFix" result="shape"/>
<feColorMatrix in="SourceAlpha" type="matrix" values="0 0 0 0 0 0 0 0 0 0 0 0 0 0 0 0 0 0 127 0" result="hardAlpha"/>
<feOffset dy="4"/>
<feGaussianBlur stdDeviation="5"/>
<feComposite in2="hardAlpha" operator="arithmetic" k2="-1" k3="1"/>
<feColorMatrix type="matrix" values="0 0 0 0 0.934495 0 0 0 0 0.934495 0 0 0 0 0.934495 0 0 0 0.25 0"/>
<feBlend mode="normal" in2="shape" result="effect1_innerShadow_8_17"/>
</filter>
<linearGradient id="paint0_linear_8_17" x1="499.847" y1="619.134" x2="499.847" y2="829.045" gradientUnits="userSpaceOnUse">
<stop stop-color="#FFB700"/>
<stop offset="1" stop-color="#FF7301"/>
</linearGradient>
<linearGradient id="paint1_linear_8_17" x1="708.896" y1="447.882" x2="708.896" y2="778.343" gradientUnits="userSpaceOnUse">
<stop stop-color="#FFB700"/>
<stop offset="1" stop-color="#FF7301"/>
</linearGradient>
<linearGradient id="paint2_linear_8_17" x1="794.725" y1="349.248" x2="486.981" y2="569.144" gradientUnits="userSpaceOnUse">
<stop stop-color="#FFB700"/>
<stop offset="1" stop-color="#FF7301"/>
</linearGradient>
<linearGradient id="paint3_linear_8_17" x1="392.451" y1="262" x2="392.451" y2="633.197" gradientUnits="userSpaceOnUse">
<stop stop-color="#FFB700"/>
<stop offset="1" stop-color="#FF7301"/>
</linearGradient>
<linearGradient id="paint4_linear_8_17" x1="394.702" y1="506.276" x2="394.702" y2="742.339" gradientUnits="userSpaceOnUse">
<stop stop-color="#FFB700"/>
<stop offset="1" stop-color="#FF7301"/>
</linearGradient>
<linearGradient id="paint5_linear_8_17" x1="901.848" y1="379.134" x2="901.848" y2="589.045" gradientUnits="userSpaceOnUse">
<stop stop-color="#FFB700"/>
<stop offset="1" stop-color="#FF7301"/>
</linearGradient>
<linearGradient id="paint6_linear_8_17" x1="1104.86" y1="190" x2="1104.86" y2="520.461" gradientUnits="userSpaceOnUse">
<stop stop-color="#FFB700"/>
<stop offset="1" stop-color="#FF7301"/>
</linearGradient>
<linearGradient id="paint7_linear_8_17" x1="1042.85" y1="0" x2="1043" y2="550" gradientUnits="userSpaceOnUse">
<stop stop-color="#FFB700"/>
<stop offset="1" stop-color="#FF7301"/>
</linearGradient>
<linearGradient id="paint8_linear_8_17" x1="786.451" y1="22" x2="786.451" y2="393.197" gradientUnits="userSpaceOnUse">
<stop stop-color="#FFB700"/>
<stop offset="1" stop-color="#FF7301"/>
</linearGradient>
<linearGradient id="paint9_linear_8_17" x1="796.703" y1="266.276" x2="796.703" y2="502.339" gradientUnits="userSpaceOnUse">
<stop stop-color="#FFB700"/>
<stop offset="1" stop-color="#FF7301"/>
</linearGradient>
<linearGradient id="paint10_linear_8_17" x1="924.101" y1="1007.47" x2="864.924" y2="1208.86" gradientUnits="userSpaceOnUse">
<stop stop-color="#FFB700"/>
<stop offset="1" stop-color="#FF7301"/>
</linearGradient>
<linearGradient id="paint11_linear_8_17" x1="802.186" y1="777.291" x2="732.37" y2="1096.16" gradientUnits="userSpaceOnUse">
<stop stop-color="#FFB700"/>
<stop offset="1" stop-color="#FF7301"/>
</linearGradient>
<linearGradient id="paint12_linear_8_17" x1="728.807" y1="643.324" x2="954.004" y2="939.5" gradientUnits="userSpaceOnUse">
<stop stop-color="#FFB700"/>
<stop offset="1" stop-color="#FF7301"/>
</linearGradient>
<linearGradient id="paint13_linear_8_17" x1="1148.53" y1="702.655" x2="1043.89" y2="1058.8" gradientUnits="userSpaceOnUse">
<stop stop-color="#FFB700"/>
<stop offset="1" stop-color="#FF7301"/>
</linearGradient>
<linearGradient id="paint14_linear_8_17" x1="1075.43" y1="943.451" x2="1008.88" y2="1169.94" gradientUnits="userSpaceOnUse">
<stop stop-color="#FFB700"/>
<stop offset="1" stop-color="#FF7301"/>
</linearGradient>
</defs>
</svg>
