<svg width="1304" height="861" viewBox="0 0 1304 861" fill="none" xmlns="http://www.w3.org/2000/svg">
<g id="front flower">
<g id="stem" filter="url(#filter0_i_1_42)">
<path d="M959.824 690.034C977.828 628.758 941.036 537.782 920.389 499.953L849.819 452.375C878.92 494.925 933.976 603.526 921.386 697.529C905.648 815.033 800.828 1207.51 711.78 1264.72C580.522 1349.06 286.531 1885.26 254.968 2061.19C229.718 2201.94 311.711 2396.38 355.864 2476.01L411.457 2492.35C370.63 2440.99 290.081 2285.17 294.501 2072.81C300.027 1807.36 679.164 1416.83 774.821 1255.71C870.479 1094.59 937.318 766.63 959.824 690.034Z" fill="#779357"/>
</g>
<path id="petal1" d="M931.508 503.22C904.329 495.234 903.444 448.002 882.08 443.066L869.737 485.07C863.203 507.307 785.971 546.349 779.437 568.586C772.903 590.823 808.074 594.447 831.259 616.023C854.445 637.598 822.91 644.437 847.618 651.697C872.327 658.957 874.651 655.614 893.03 634.173C911.408 612.732 987.997 612.421 997.945 583.134C1007.89 553.847 958.687 511.206 931.508 503.22Z" fill="url(#paint0_linear_1_42)"/>
<path id="petal5" d="M889.938 549.119C920.748 538.938 913.374 401.914 886.101 395.942C869.006 368.587 839.791 371.481 818.191 344.617C796.591 317.753 789.018 277.035 770.565 250.86C752.112 224.685 692.126 202.437 677.713 197.979C663.299 193.522 630.661 237.154 622.5 274.428C614.339 311.701 626.228 302.586 629.995 325.546C633.762 348.505 618.611 337.375 611.81 368.436C605.009 399.498 642.692 453.319 669.965 459.291C697.239 465.262 704.268 508.466 722.993 533.398C741.718 558.33 768.371 542.032 803.066 539.212C837.761 536.392 859.128 559.299 889.938 549.119Z" fill="url(#paint1_linear_1_42)"/>
<path id="petal4" d="M833.971 322.76C859.677 366.817 841.651 383.528 844.827 431.973C848.004 480.417 920.844 518.889 939.055 509.918C957.266 500.946 887.87 476.259 920.187 454.116C952.504 431.973 946.616 373.305 986.277 320.54C1025.94 267.775 1018.95 209.354 1026.21 184.645C1033.47 159.937 1012.61 157.836 993.132 137.349C973.653 116.863 975.684 105.381 963.763 91.1417C951.842 76.9024 946.468 86.0597 939.055 83.8817C931.643 81.7037 921.104 71.8966 910.202 63.325C899.3 54.7534 813.12 60.2986 787.469 60.814C761.819 61.3294 777.739 84.7961 761.831 106.963C745.923 129.13 724.131 157.621 709.611 207.037C695.091 256.453 801.839 267.688 833.971 322.76Z" fill="url(#paint2_linear_1_42)"/>
<path id="petal3" d="M1045.57 411.922C992.957 408.274 922.457 444.194 893.784 462.61L984.119 232.819C997.242 212.517 1026.29 166.028 1037.5 142.482C1051.52 113.049 1091.35 132.803 1122.52 150.016C1153.7 167.23 1141.72 185.181 1171.37 193.893C1201.02 202.605 1192.52 226.95 1194.13 248.895C1195.73 270.839 1232.57 264.217 1252.85 272.859C1273.12 281.501 1231.79 344.512 1223.08 374.162C1214.37 403.812 1236.1 407.512 1229.92 428.514C1223.75 449.516 1111.33 416.483 1045.57 411.922Z" fill="url(#paint3_linear_1_42)"/>
<path id="petal2" d="M1183.69 531.442C1217.26 513.122 1192.69 487.114 1175.47 495.475C1162.53 475.568 1175.39 459.215 1163.75 430.297C1152.12 401.38 1097.62 404.155 1058.75 399.442C1027.64 395.672 895.55 447.758 893.594 463.649C891.638 479.54 952.437 513.685 966.864 552.281C984.898 600.526 916.435 554.911 972.69 600.966C1028.94 647.021 1019.69 559.752 1059.23 571.368C1098.76 582.984 1065.76 549.131 1082.61 519.188C1099.46 489.246 1150.12 549.763 1183.69 531.442Z" fill="url(#paint4_linear_1_42)"/>
</g>
<defs>
<filter id="filter0_i_1_42" x="250.239" y="452.376" width="714.401" height="2043.97" filterUnits="userSpaceOnUse" color-interpolation-filters="sRGB">
<feFlood flood-opacity="0" result="BackgroundImageFix"/>
<feBlend mode="normal" in="SourceGraphic" in2="BackgroundImageFix" result="shape"/>
<feColorMatrix in="SourceAlpha" type="matrix" values="0 0 0 0 0 0 0 0 0 0 0 0 0 0 0 0 0 0 127 0" result="hardAlpha"/>
<feOffset dy="4"/>
<feGaussianBlur stdDeviation="5"/>
<feComposite in2="hardAlpha" operator="arithmetic" k2="-1" k3="1"/>
<feColorMatrix type="matrix" values="0 0 0 0 0.934495 0 0 0 0 0.934495 0 0 0 0 0.934495 0 0 0 0.25 0"/>
<feBlend mode="normal" in2="shape" result="effect1_innerShadow_1_42"/>
</filter>
<linearGradient id="paint0_linear_1_42" x1="924.101" y1="455.385" x2="864.924" y2="656.782" gradientUnits="userSpaceOnUse">
<stop stop-color="#FFB700"/>
<stop offset="1" stop-color="#FF7301"/>
</linearGradient>
<linearGradient id="paint1_linear_1_42" x1="802.186" y1="225.209" x2="732.37" y2="544.076" gradientUnits="userSpaceOnUse">
<stop stop-color="#FFB700"/>
<stop offset="1" stop-color="#FF7301"/>
</linearGradient>
<linearGradient id="paint2_linear_1_42" x1="728.807" y1="91.2419" x2="954.004" y2="387.418" gradientUnits="userSpaceOnUse">
<stop stop-color="#FFB700"/>
<stop offset="1" stop-color="#FF7301"/>
</linearGradient>
<linearGradient id="paint3_linear_1_42" x1="1148.53" y1="150.573" x2="1043.89" y2="506.714" gradientUnits="userSpaceOnUse">
<stop stop-color="#FFB700"/>
<stop offset="1" stop-color="#FF7301"/>
</linearGradient>
<linearGradient id="paint4_linear_1_42" x1="1075.43" y1="391.369" x2="1008.88" y2="617.857" gradientUnits="userSpaceOnUse">
<stop stop-color="#FFB700"/>
<stop offset="1" stop-color="#FF7301"/>
</linearGradient>
</defs>
</svg>
