<svg width="671" height="1173" viewBox="0 0 671 1173" fill="none" xmlns="http://www.w3.org/2000/svg">
<g id="middle flower">
<g id="stem" filter="url(#filter0_i_1_34)">
<path d="M163.419 594.196C163.419 530.329 224.367 453.415 254.841 422.941L335.961 397.188C296.045 429.808 212.606 518.483 198.185 612.222C180.158 729.397 170.083 1135.5 239.389 1215.5C341.548 1333.42 472.45 1930.76 453.136 2108.45C437.684 2250.6 304.2 2414.05 239.389 2478H181.446C235.097 2440.23 356.306 2313.44 411.932 2108.45C481.464 1852.21 227.8 1370.64 181.446 1189.08C135.091 1007.53 163.419 674.029 163.419 594.196Z" fill="#779357"/>
</g>
<path id="petal1" d="M243.252 422.941C271.58 422.941 285.744 377.874 307.634 379.161V422.941C307.634 446.118 370.728 505.349 370.728 528.526C370.728 551.704 335.961 545.266 307.634 559.43C279.306 573.594 307.634 589.045 281.881 589.045C256.128 589.045 254.841 585.182 243.252 559.43C231.663 533.677 158.268 511.787 156.981 480.884C155.693 449.981 214.924 422.941 243.252 422.941Z" fill="url(#paint0_linear_1_34)"/>
<path id="petal2" d="M287.032 509.212C253.553 492.473 297.333 358.559 330.811 358.559C357.851 335.208 391.33 344.395 423.52 322.506C455.711 300.616 475.026 261.987 503.354 240.097C531.681 218.207 607.652 209.194 625.679 207.906C643.705 206.619 670.746 256.836 670.746 295.465C670.746 334.094 659.157 322.506 648.856 344.395C638.555 366.285 659.157 358.559 659.157 390.75C659.157 422.941 601.214 468.008 567.735 468.008C534.257 468.008 514.942 509.212 486.614 529.814C458.286 550.416 431.246 528.526 391.33 518.225C351.413 507.924 320.51 525.951 287.032 509.212Z" fill="url(#paint1_linear_1_34)"/>
<path id="petal3" d="M406.781 271C369.697 306.024 375.154 349.946 365.577 372.723C356 395.5 287.031 442.5 275.443 438.392C263.854 434.285 284.971 393.325 287.031 372.723C289.607 346.97 284.456 287.739 261.279 225.933C238.101 164.127 261.279 110.046 261.279 84.2937C261.279 58.5411 281.881 62.404 306.346 48.24C330.811 34.0761 332.099 22.4874 347.55 12.1864C363.002 1.88531 365.577 12.1864 373.303 12.1864C381.029 12.1864 393.905 5.74821 406.781 0.597686C419.657 -4.55284 500.778 25.0627 525.243 32.7885C549.708 40.5143 527.819 58.5411 536.832 84.2937C545.845 110.046 558.722 143.525 558.722 195.03C558.722 246.535 453.136 227.221 406.781 271Z" fill="url(#paint2_linear_1_34)"/>
<path id="petal4" d="M181.556 301.776C233.061 313.107 290.575 367.445 312.894 393.197L291.005 147.26C284.137 124.082 269.372 71.2896 265.252 45.537C260.102 13.3462 216.322 21.072 181.556 28.7978C146.79 36.5236 153.228 57.1257 122.325 57.1257C91.4218 57.1257 92.7094 82.8783 84.9837 103.48C77.2579 124.082 43.7795 107.343 21.8897 109.919C0 112.494 21.8897 184.601 21.8897 215.504C21.8897 246.407 0 243.832 0 265.722C0 287.612 117.174 287.612 181.556 301.776Z" fill="url(#paint3_linear_1_34)"/>
<path id="petal5" d="M15.3413 370.148C-11.6989 343.108 19.2042 325.081 33.3682 337.957C51.395 322.506 43.6692 303.191 62.9837 278.726C82.2981 254.261 133.803 272.288 172.432 278.726C203.335 283.877 278.876 352.979 312.784 386.887C319 404 242.222 418.305 217.499 451.269C186.596 492.473 265.142 468.008 198.185 496.336C131.228 524.664 164.707 443.543 123.502 443.543C82.2981 443.543 123.502 420.365 115.777 386.887C108.051 353.409 42.3816 397.188 15.3413 370.148Z" fill="url(#paint4_linear_1_34)"/>
</g>
<defs>
<filter id="filter0_i_1_34" x="154.85" y="397.188" width="300.199" height="2084.81" filterUnits="userSpaceOnUse" color-interpolation-filters="sRGB">
<feFlood flood-opacity="0" result="BackgroundImageFix"/>
<feBlend mode="normal" in="SourceGraphic" in2="BackgroundImageFix" result="shape"/>
<feColorMatrix in="SourceAlpha" type="matrix" values="0 0 0 0 0 0 0 0 0 0 0 0 0 0 0 0 0 0 127 0" result="hardAlpha"/>
<feOffset dy="4"/>
<feGaussianBlur stdDeviation="5"/>
<feComposite in2="hardAlpha" operator="arithmetic" k2="-1" k3="1"/>
<feColorMatrix type="matrix" values="0 0 0 0 0.934495 0 0 0 0 0.934495 0 0 0 0 0.934495 0 0 0 0.25 0"/>
<feBlend mode="normal" in2="shape" result="effect1_innerShadow_1_34"/>
</filter>
<linearGradient id="paint0_linear_1_34" x1="263.844" y1="379.134" x2="263.844" y2="589.045" gradientUnits="userSpaceOnUse">
<stop stop-color="#FFB700"/>
<stop offset="1" stop-color="#FF7301"/>
</linearGradient>
<linearGradient id="paint1_linear_1_34" x1="472.892" y1="207.882" x2="472.892" y2="538.343" gradientUnits="userSpaceOnUse">
<stop stop-color="#FFB700"/>
<stop offset="1" stop-color="#FF7301"/>
</linearGradient>
<linearGradient id="paint2_linear_1_34" x1="558.722" y1="109.248" x2="250.978" y2="329.144" gradientUnits="userSpaceOnUse">
<stop stop-color="#FFB700"/>
<stop offset="1" stop-color="#FF7301"/>
</linearGradient>
<linearGradient id="paint3_linear_1_34" x1="156.447" y1="22" x2="156.447" y2="393.197" gradientUnits="userSpaceOnUse">
<stop stop-color="#FFB700"/>
<stop offset="1" stop-color="#FF7301"/>
</linearGradient>
<linearGradient id="paint4_linear_1_34" x1="158.698" y1="266.276" x2="158.698" y2="502.339" gradientUnits="userSpaceOnUse">
<stop stop-color="#FFB700"/>
<stop offset="1" stop-color="#FF7301"/>
</linearGradient>
</defs>
</svg>
