<!-- Red Coral — organic branching form -->
<svg xmlns="http://www.w3.org/2000/svg" viewBox="0 0 120 120" width="120" height="120">
  <path d="M60 110 C60 110 58 80 58 70 C58 60 48 55 40 42 C34 32 36 18 42 14 C48 10 54 16 54 24 C54 16 50 10 56 8 C62 6 66 14 64 24 C68 16 72 12 78 16 C84 20 82 32 76 42 C68 55 62 60 62 70 C62 80 60 110 60 110Z" fill="rgba(255,255,255,0.82)"/>
  <path d="M54 24 C54 16 50 10 56 8 C62 6 66 14 64 24" fill="rgba(255,255,255,0.95)"/>
  <path d="M42 14 C48 10 54 16 54 24 C54 30 52 36 48 42" fill="rgba(255,255,255,0.9)"/>
</svg>
