<svg preserveAspectRatio="none" width="100%" height="100%" overflow="visible" style="display: block;" viewBox="0 0 40 44" fill="none" xmlns="http://www.w3.org/2000/svg">
<g id="Vector">
<path fill-rule="evenodd" clip-rule="evenodd" d="M12 0C13.1046 0 14 0.895431 14 2V10C14 11.1046 13.1046 12 12 12C10.8954 12 10 11.1046 10 10V2C10 0.895431 10.8954 0 12 0Z" fill="var(--fill-0, white)"/>
<path fill-rule="evenodd" clip-rule="evenodd" d="M28 0C29.1046 0 30 0.895431 30 2V10C30 11.1046 29.1046 12 28 12C26.8954 12 26 11.1046 26 10V2C26 0.895431 26.8954 0 28 0Z" fill="var(--fill-0, white)"/>
<path fill-rule="evenodd" clip-rule="evenodd" d="M6 8C4.89543 8 4 8.89543 4 10V38C4 39.1046 4.89543 40 6 40H34C35.1046 40 36 39.1046 36 38V10C36 8.89543 35.1046 8 34 8H6ZM0 10C0 6.68629 2.68629 4 6 4H34C37.3137 4 40 6.68629 40 10V38C40 41.3137 37.3137 44 34 44H6C2.68629 44 0 41.3137 0 38V10Z" fill="var(--fill-0, white)"/>
<path fill-rule="evenodd" clip-rule="evenodd" d="M0 18C0 16.8954 0.895431 16 2 16H38C39.1046 16 40 16.8954 40 18C40 19.1046 39.1046 20 38 20H2C0.895431 20 0 19.1046 0 18Z" fill="var(--fill-0, white)"/>
</g>
</svg>
